<svg xmlns="http://www.w3.org/2000/svg" width="18" height="18" fill="none"><path fill="#1C1C1C" fill-rule="evenodd" d="M1.716 4.333a2.618 2.618 0 1 1 5.236 0 2.618 2.618 0 0 1-5.236 0ZM4.334.815a3.518 3.518 0 1 0 0 7.036 3.518 3.518 0 0 0 0-7.036Zm2.737 12.852L2.184 16.37v-5.407l4.887 2.704Zm-4.748-3.655a.7.7 0 0 0-1.039.612v6.085a.7.7 0 0 0 1.039.613l5.5-3.043a.7.7 0 0 0 0-1.225l-5.5-3.043Zm7.894.905a.7.7 0 0 1 .7-.7h5.5a.7.7 0 0 1 .7.7v5.5a.7.7 0 0 1-.7.7h-5.5a.7.7 0 0 1-.7-.7v-5.5Zm.9.2v5.1h5.1v-5.1h-5.1Zm5.702-9.299a.45.45 0 1 0-.636-.636l-2.515 2.515-2.516-2.515a.45.45 0 1 0-.636.636l2.515 2.515-2.515 2.515a.45.45 0 1 0 .636.637l2.516-2.515 2.515 2.515a.45.45 0 1 0 .636-.637l-2.515-2.515 2.515-2.515Z" clip-rule="evenodd"/></svg>