<svg width="119" height="120" viewBox="0 0 119 120" fill="none" xmlns="http://www.w3.org/2000/svg">
<mask id="path-1-inside-1_1135_6252" fill="white">
<path fill-rule="evenodd" clip-rule="evenodd" d="M101.428 17.9345C78.2684 -5.22527 40.7189 -5.22527 17.5591 17.9345C-5.60063 41.0943 -5.60063 78.6437 17.5591 101.804C40.7189 124.963 78.2684 124.963 101.428 101.804C124.588 78.6437 124.588 41.0943 101.428 17.9345ZM42.3394 32.0545C43.1996 30.5272 44.2798 29.0903 45.58 27.7902C53.2643 20.1058 65.7231 20.1058 73.4075 27.7902C74.7076 29.0903 75.7878 30.5271 76.648 32.0544C79.0799 36.3721 82.9908 40.283 87.3085 42.7149C88.8357 43.5751 90.2725 44.6553 91.5727 45.9554C99.257 53.6398 99.257 66.0985 91.5727 73.7829C90.2725 75.0831 88.8356 76.1633 87.3084 77.0235C82.9907 79.4553 79.0799 83.3661 76.648 87.6837C75.7878 89.2109 74.7077 90.6477 73.4075 91.9478C65.7232 99.6322 53.2644 99.6322 45.58 91.9478C44.2799 90.6477 43.1998 89.2109 42.3396 87.6837C39.9077 83.3661 35.9969 79.4553 31.6792 77.0235C30.1519 76.1633 28.7151 75.0831 27.4149 73.7829C19.7306 66.0985 19.7306 53.6397 27.4149 45.9554C28.715 44.6553 30.1518 43.5751 31.679 42.7149C35.9967 40.2831 39.9076 36.3722 42.3394 32.0545Z"/>
</mask>
<path fill-rule="evenodd" clip-rule="evenodd" d="M101.428 17.9345C78.2684 -5.22527 40.7189 -5.22527 17.5591 17.9345C-5.60063 41.0943 -5.60063 78.6437 17.5591 101.804C40.7189 124.963 78.2684 124.963 101.428 101.804C124.588 78.6437 124.588 41.0943 101.428 17.9345ZM42.3394 32.0545C43.1996 30.5272 44.2798 29.0903 45.58 27.7902C53.2643 20.1058 65.7231 20.1058 73.4075 27.7902C74.7076 29.0903 75.7878 30.5271 76.648 32.0544C79.0799 36.3721 82.9908 40.283 87.3085 42.7149C88.8357 43.5751 90.2725 44.6553 91.5727 45.9554C99.257 53.6398 99.257 66.0985 91.5727 73.7829C90.2725 75.0831 88.8356 76.1633 87.3084 77.0235C82.9907 79.4553 79.0799 83.3661 76.648 87.6837C75.7878 89.2109 74.7077 90.6477 73.4075 91.9478C65.7232 99.6322 53.2644 99.6322 45.58 91.9478C44.2799 90.6477 43.1998 89.2109 42.3396 87.6837C39.9077 83.3661 35.9969 79.4553 31.6792 77.0235C30.1519 76.1633 28.7151 75.0831 27.4149 73.7829C19.7306 66.0985 19.7306 53.6397 27.4149 45.9554C28.715 44.6553 30.1518 43.5751 31.679 42.7149C35.9967 40.2831 39.9076 36.3722 42.3394 32.0545Z" fill="#69B6D3"/>
<path d="M42.3394 32.0545L44.082 33.0359L42.3394 32.0545ZM76.648 32.0544L74.9054 33.0359L76.648 32.0544ZM87.3085 42.7149L88.29 40.9723L88.29 40.9723L87.3085 42.7149ZM87.3084 77.0235L88.2898 78.7661L88.2899 78.7661L87.3084 77.0235ZM76.648 87.6837L78.3906 88.6652L76.648 87.6837ZM42.3396 87.6837L40.597 88.6652L42.3396 87.6837ZM31.6792 77.0235L30.6977 78.7661L30.6977 78.7661L31.6792 77.0235ZM31.679 42.7149L32.6605 44.4575L32.6605 44.4575L31.679 42.7149ZM18.9734 19.3487C41.3521 -3.03001 77.6352 -3.03001 100.014 19.3487L102.842 16.5203C78.9015 -7.42054 40.0858 -7.42054 16.1449 16.5203L18.9734 19.3487ZM18.9734 100.389C-3.40537 78.0106 -3.40537 41.7274 18.9734 19.3487L16.1449 16.5203C-7.79589 40.4611 -7.7959 79.2769 16.1449 103.218L18.9734 100.389ZM100.014 100.389C77.6352 122.768 41.3521 122.768 18.9734 100.389L16.1449 103.218C40.0858 127.159 78.9015 127.159 102.842 103.218L100.014 100.389ZM100.014 19.3487C122.393 41.7274 122.393 78.0106 100.014 100.389L102.842 103.218C126.783 79.2769 126.783 40.4611 102.842 16.5203L100.014 19.3487ZM44.1658 26.3759C42.7357 27.806 41.5454 29.3887 40.5968 31.073L44.082 33.0359C44.8538 31.6656 45.8239 30.3747 46.9942 29.2044L44.1658 26.3759ZM74.8217 26.3759C66.3563 17.9105 52.6312 17.9105 44.1658 26.3759L46.9942 29.2044C53.8975 22.3011 65.09 22.3011 71.9933 29.2044L74.8217 26.3759ZM78.3906 31.0729C77.442 29.3887 76.2517 27.806 74.8217 26.3759L71.9933 29.2044C73.1636 30.3747 74.1336 31.6656 74.9054 33.0359L78.3906 31.0729ZM88.29 40.9723C84.2907 38.7198 80.6431 35.0721 78.3906 31.0729L74.9054 33.0359C77.5166 37.6721 81.6908 41.8463 86.327 44.4575L88.29 40.9723ZM92.9869 44.5412C91.5569 43.1112 89.9742 41.9209 88.29 40.9723L86.327 44.4575C87.6972 45.2293 88.9882 46.1993 90.1584 47.3696L92.9869 44.5412ZM92.9869 75.1971C101.452 66.7317 101.452 53.0066 92.9869 44.5412L90.1584 47.3696C97.0618 54.2729 97.0618 65.4654 90.1584 72.3687L92.9869 75.1971ZM88.2899 78.7661C89.9741 77.8174 91.5568 76.6272 92.9869 75.1971L90.1584 72.3687C88.9881 73.539 87.6972 74.5091 86.3269 75.2808L88.2899 78.7661ZM78.3906 88.6652C80.6431 84.6661 84.2907 81.0185 88.2898 78.7661L86.3269 75.2808C81.6907 77.892 77.5166 82.0661 74.9054 86.7022L78.3906 88.6652ZM74.8218 93.362C76.2517 91.9321 77.442 90.3494 78.3906 88.6652L74.9054 86.7022C74.1336 88.0724 73.1636 89.3634 71.9933 90.5336L74.8218 93.362ZM44.1658 93.362C52.6312 101.827 66.3564 101.827 74.8218 93.362L71.9933 90.5336C65.09 97.4369 53.8976 97.4369 46.9942 90.5336L44.1658 93.362ZM40.597 88.6652C41.5456 90.3494 42.7358 91.9321 44.1658 93.362L46.9942 90.5336C45.824 89.3634 44.854 88.0725 44.0822 86.7022L40.597 88.6652ZM30.6977 78.7661C34.6969 81.0185 38.3445 84.6661 40.597 88.6652L44.0822 86.7022C41.4709 82.0661 37.2969 77.892 32.6607 75.2808L30.6977 78.7661ZM26.0007 75.1971C27.4307 76.6271 29.0135 77.8174 30.6977 78.7661L32.6607 75.2808C31.2904 74.5091 29.9994 73.539 28.8291 72.3687L26.0007 75.1971ZM26.0007 44.5412C17.5353 53.0066 17.5353 66.7317 26.0007 75.1971L28.8291 72.3687C21.9258 65.4654 21.9258 54.2729 28.8291 47.3696L26.0007 44.5412ZM30.6975 40.9723C29.0134 41.9209 27.4307 43.1112 26.0007 44.5412L28.8291 47.3696C29.9994 46.1994 31.2903 45.2293 32.6605 44.4575L30.6975 40.9723ZM40.5968 31.073C38.3444 35.0722 34.6967 38.7198 30.6975 40.9723L32.6605 44.4575C37.2967 41.8463 41.4708 37.6721 44.082 33.0359L40.5968 31.073Z" fill="#1C1C1C" mask="url(#path-1-inside-1_1135_6252)"/>
</svg>
