<svg width="447" height="447" viewBox="0 0 447 447" fill="none" xmlns="http://www.w3.org/2000/svg">
<mask id="path-1-inside-1_1135_6248" fill="white">
<path fill-rule="evenodd" clip-rule="evenodd" d="M223.5 447C346.936 447 447 346.936 447 223.5C447 100.064 346.936 0 223.5 0C100.064 0 0 100.064 0 223.5C0 346.936 100.064 447 223.5 447ZM234.437 151.746C231.584 140.368 215.415 140.368 212.563 151.746C210.471 160.092 200.179 163.113 193.908 157.224C185.357 149.194 171.754 157.936 175.506 169.05C178.258 177.201 171.234 185.307 162.774 183.744C151.239 181.612 144.522 196.32 153.687 203.641C160.409 209.011 158.883 219.627 150.92 222.886C140.064 227.328 142.365 243.333 154.033 244.537C162.591 245.42 167.047 255.177 162.11 262.223C155.379 271.829 165.967 284.049 176.434 278.754C184.111 274.87 193.134 280.669 192.791 289.265C192.322 300.986 207.836 305.541 213.778 295.428C218.137 288.01 228.863 288.01 233.221 295.428C239.163 305.541 254.678 300.986 254.209 289.265C253.865 280.669 262.888 274.87 270.565 278.754C281.032 284.049 291.62 271.829 284.889 262.223C279.952 255.177 284.408 245.42 292.966 244.537C304.634 243.333 306.936 227.328 296.079 222.886C288.117 219.627 286.59 209.011 293.312 203.641C302.477 196.32 295.76 181.612 284.225 183.744C275.765 185.307 268.741 177.201 271.493 169.05C275.245 157.936 261.643 149.194 253.092 157.224C246.82 163.113 236.529 160.092 234.437 151.746Z"/>
</mask>
<path fill-rule="evenodd" clip-rule="evenodd" d="M223.5 447C346.936 447 447 346.936 447 223.5C447 100.064 346.936 0 223.5 0C100.064 0 0 100.064 0 223.5C0 346.936 100.064 447 223.5 447ZM234.437 151.746C231.584 140.368 215.415 140.368 212.563 151.746C210.471 160.092 200.179 163.113 193.908 157.224C185.357 149.194 171.754 157.936 175.506 169.05C178.258 177.201 171.234 185.307 162.774 183.744C151.239 181.612 144.522 196.32 153.687 203.641C160.409 209.011 158.883 219.627 150.92 222.886C140.064 227.328 142.365 243.333 154.033 244.537C162.591 245.42 167.047 255.177 162.11 262.223C155.379 271.829 165.967 284.049 176.434 278.754C184.111 274.87 193.134 280.669 192.791 289.265C192.322 300.986 207.836 305.541 213.778 295.428C218.137 288.01 228.863 288.01 233.221 295.428C239.163 305.541 254.678 300.986 254.209 289.265C253.865 280.669 262.888 274.87 270.565 278.754C281.032 284.049 291.62 271.829 284.889 262.223C279.952 255.177 284.408 245.42 292.966 244.537C304.634 243.333 306.936 227.328 296.079 222.886C288.117 219.627 286.59 209.011 293.312 203.641C302.477 196.32 295.76 181.612 284.225 183.744C275.765 185.307 268.741 177.201 271.493 169.05C275.245 157.936 261.643 149.194 253.092 157.224C246.82 163.113 236.529 160.092 234.437 151.746Z" fill="#B4ABDC"/>
<path d="M212.563 151.746L214.503 152.233L212.563 151.746ZM234.437 151.746L236.377 151.26L234.437 151.746ZM193.908 157.224L195.277 155.766L193.908 157.224ZM175.506 169.05L173.611 169.69L175.506 169.05ZM162.774 183.744L162.41 185.71L162.774 183.744ZM153.687 203.641L154.935 202.078L153.687 203.641ZM150.92 222.886L150.163 221.035L150.92 222.886ZM154.033 244.537L154.238 242.547L154.033 244.537ZM162.11 262.223L163.748 263.37L162.11 262.223ZM176.434 278.754L177.337 280.538H177.337L176.434 278.754ZM192.791 289.265L194.789 289.345L192.791 289.265ZM213.778 295.428L215.503 296.441L213.778 295.428ZM233.221 295.428L231.497 296.441L233.221 295.428ZM254.209 289.265L256.207 289.185L254.209 289.265ZM270.565 278.754L271.468 276.969L270.565 278.754ZM284.889 262.223L283.251 263.37L284.889 262.223ZM292.966 244.537L292.761 242.547L292.966 244.537ZM296.079 222.886L296.837 221.035H296.837L296.079 222.886ZM293.312 203.641L292.064 202.078L293.312 203.641ZM284.225 183.744L284.589 185.71L284.225 183.744ZM271.493 169.05L273.388 169.69V169.69L271.493 169.05ZM253.092 157.224L251.723 155.766L253.092 157.224ZM445 223.5C445 345.831 345.831 445 223.5 445V449C348.04 449 449 348.04 449 223.5H445ZM223.5 2C345.831 2 445 101.169 445 223.5H449C449 98.9598 348.04 -2 223.5 -2V2ZM2 223.5C2 101.169 101.169 2 223.5 2V-2C98.9598 -2 -2 98.9598 -2 223.5H2ZM223.5 445C101.169 445 2 345.831 2 223.5H-2C-2 348.04 98.9598 449 223.5 449V445ZM214.503 152.233C216.849 142.873 230.15 142.873 232.497 152.233L236.377 151.26C233.018 137.864 213.981 137.864 210.623 151.26L214.503 152.233ZM192.539 158.682C199.923 165.616 212.04 162.058 214.503 152.233L210.623 151.26C208.902 158.125 200.436 160.611 195.277 155.766L192.539 158.682ZM177.401 168.41C174.315 159.268 185.504 152.077 192.539 158.682L195.277 155.766C185.209 146.312 169.194 156.604 173.611 169.69L177.401 168.41ZM162.41 185.71C172.371 187.552 180.641 178.008 177.401 168.41L173.611 169.69C175.875 176.395 170.097 183.063 163.137 181.777L162.41 185.71ZM154.935 202.078C147.396 196.056 152.922 183.957 162.41 185.71L163.137 181.777C149.557 179.267 141.648 196.584 152.439 205.203L154.935 202.078ZM151.678 224.737C161.053 220.9 162.85 208.4 154.935 202.078L152.439 205.203C157.969 209.621 156.713 218.354 150.163 221.035L151.678 224.737ZM154.238 242.547C144.64 241.557 142.747 228.391 151.678 224.737L150.163 221.035C137.381 226.265 140.09 245.109 153.828 246.526L154.238 242.547ZM163.748 263.37C169.561 255.074 164.314 243.587 154.238 242.547L153.828 246.526C160.868 247.253 164.533 255.279 160.472 261.075L163.748 263.37ZM175.531 276.969C166.921 281.325 158.211 271.273 163.748 263.37L160.472 261.075C152.547 272.386 165.014 286.773 177.337 280.538L175.531 276.969ZM194.789 289.345C195.194 279.224 184.57 272.396 175.531 276.969L177.337 280.538C183.652 277.343 191.075 282.114 190.792 289.185L194.789 289.345ZM212.054 294.415C207.166 302.734 194.403 298.987 194.789 289.345L190.792 289.185C190.24 302.985 208.506 308.349 215.503 296.441L212.054 294.415ZM234.945 294.415C229.814 285.681 217.185 285.681 212.054 294.415L215.503 296.441C219.088 290.339 227.911 290.339 231.497 296.441L234.945 294.415ZM252.21 289.345C252.596 298.987 239.834 302.734 234.945 294.415L231.497 296.441C238.493 308.349 256.759 302.985 256.207 289.185L252.21 289.345ZM271.468 276.969C262.429 272.396 251.806 279.224 252.21 289.345L256.207 289.185C255.924 282.114 263.347 277.343 269.662 280.538L271.468 276.969ZM283.251 263.37C288.789 271.273 280.078 281.325 271.468 276.969L269.662 280.538C281.986 286.773 294.452 272.386 286.527 261.075L283.251 263.37ZM292.761 242.547C282.685 243.587 277.439 255.074 283.251 263.37L286.527 261.075C282.466 255.279 286.132 247.253 293.172 246.526L292.761 242.547ZM295.322 224.737C304.252 228.391 302.359 241.557 292.761 242.547L293.172 246.526C306.909 245.109 309.619 226.265 296.837 221.035L295.322 224.737ZM292.064 202.078C284.15 208.4 285.947 220.9 295.322 224.737L296.837 221.035C290.286 218.354 289.031 209.621 294.56 205.203L292.064 202.078ZM284.589 185.71C294.078 183.957 299.603 196.056 292.064 202.078L294.56 205.203C305.351 196.584 297.443 179.267 283.862 181.777L284.589 185.71ZM269.598 168.41C266.358 178.008 274.628 187.552 284.589 185.71L283.862 181.777C276.902 183.063 271.124 176.395 273.388 169.69L269.598 168.41ZM254.461 158.682C261.495 152.077 272.685 159.268 269.598 168.41L273.388 169.69C277.806 156.604 261.79 146.312 251.723 155.766L254.461 158.682ZM232.497 152.233C234.96 162.058 247.077 165.616 254.461 158.682L251.723 155.766C246.563 160.611 238.097 158.125 236.377 151.26L232.497 152.233Z" fill="#1C1C1C" mask="url(#path-1-inside-1_1135_6248)"/>
</svg>
