<svg width="284" height="284" viewBox="0 0 284 284" fill="none" xmlns="http://www.w3.org/2000/svg">
<mask id="path-1-inside-1_1135_6245" fill="white">
<path fill-rule="evenodd" clip-rule="evenodd" d="M141.628 284C219.847 284 283.256 220.591 283.256 142.372C283.256 64.1527 219.847 0.743652 141.628 0.743652C63.4091 0.743652 0 64.1527 0 142.372C0 220.591 63.4091 284 141.628 284ZM148.559 96.9028C146.751 89.6927 136.505 89.6927 134.698 96.9028C133.372 102.191 126.85 104.106 122.876 100.374C117.458 95.2856 108.838 100.825 111.216 107.868C112.959 113.033 108.508 118.17 103.147 117.179C95.8379 115.828 91.5815 125.148 97.3892 129.787C101.649 133.19 100.682 139.918 95.6358 141.983C88.7563 144.798 90.2145 154.94 97.6084 155.703C103.032 156.262 105.855 162.445 102.727 166.91C98.4612 172.997 105.171 180.741 111.804 177.385C116.668 174.924 122.386 178.599 122.168 184.046C121.871 191.473 131.702 194.36 135.468 187.951C138.23 183.251 145.027 183.251 147.788 187.951C151.554 194.36 161.385 191.473 161.088 184.046C160.87 178.599 166.588 174.924 171.453 177.385C178.085 180.741 184.795 172.997 180.53 166.91C177.401 162.445 180.225 156.262 185.648 155.703C193.042 154.94 194.5 144.798 187.621 141.983C182.575 139.918 181.608 133.19 185.867 129.787C191.675 125.148 187.418 115.828 180.109 117.179C174.748 118.17 170.297 113.033 172.041 107.868C174.418 100.825 165.799 95.2856 160.38 100.374C156.406 104.106 149.884 102.191 148.559 96.9028Z"/>
</mask>
<path fill-rule="evenodd" clip-rule="evenodd" d="M141.628 284C219.847 284 283.256 220.591 283.256 142.372C283.256 64.1527 219.847 0.743652 141.628 0.743652C63.4091 0.743652 0 64.1527 0 142.372C0 220.591 63.4091 284 141.628 284ZM148.559 96.9028C146.751 89.6927 136.505 89.6927 134.698 96.9028C133.372 102.191 126.85 104.106 122.876 100.374C117.458 95.2856 108.838 100.825 111.216 107.868C112.959 113.033 108.508 118.17 103.147 117.179C95.8379 115.828 91.5815 125.148 97.3892 129.787C101.649 133.19 100.682 139.918 95.6358 141.983C88.7563 144.798 90.2145 154.94 97.6084 155.703C103.032 156.262 105.855 162.445 102.727 166.91C98.4612 172.997 105.171 180.741 111.804 177.385C116.668 174.924 122.386 178.599 122.168 184.046C121.871 191.473 131.702 194.36 135.468 187.951C138.23 183.251 145.027 183.251 147.788 187.951C151.554 194.36 161.385 191.473 161.088 184.046C160.87 178.599 166.588 174.924 171.453 177.385C178.085 180.741 184.795 172.997 180.53 166.91C177.401 162.445 180.225 156.262 185.648 155.703C193.042 154.94 194.5 144.798 187.621 141.983C182.575 139.918 181.608 133.19 185.867 129.787C191.675 125.148 187.418 115.828 180.109 117.179C174.748 118.17 170.297 113.033 172.041 107.868C174.418 100.825 165.799 95.2856 160.38 100.374C156.406 104.106 149.884 102.191 148.559 96.9028Z" fill="#EBBA00"/>
<path d="M134.698 96.9028L136.638 97.3891L134.698 96.9028ZM148.559 96.9028L146.619 97.3891L148.559 96.9028ZM122.876 100.374L124.245 98.9159L122.876 100.374ZM111.216 107.868L109.321 108.507L111.216 107.868ZM103.147 117.179L103.511 115.212L103.147 117.179ZM97.3892 129.787L98.6375 128.225L98.6375 128.225L97.3892 129.787ZM95.6358 141.983L96.3933 143.834H96.3933L95.6358 141.983ZM97.6084 155.703L97.4032 157.692L97.6084 155.703ZM102.727 166.91L104.365 168.057L102.727 166.91ZM111.804 177.385L112.706 179.17L111.804 177.385ZM122.168 184.046L120.17 183.966L122.168 184.046ZM135.468 187.951L133.744 186.938H133.744L135.468 187.951ZM147.788 187.951L146.064 188.964L147.788 187.951ZM161.088 184.046L159.09 184.126L161.088 184.046ZM171.453 177.385L172.356 175.601H172.356L171.453 177.385ZM180.53 166.91L182.168 165.762L180.53 166.91ZM185.648 155.703L185.853 157.692L185.648 155.703ZM187.621 141.983L186.863 143.834L187.621 141.983ZM185.867 129.787L184.619 128.225V128.225L185.867 129.787ZM180.109 117.179L179.746 115.212L180.109 117.179ZM172.041 107.868L170.146 107.228V107.228L172.041 107.868ZM160.38 100.374L161.749 101.832V101.832L160.38 100.374ZM281.256 142.372C281.256 219.486 218.743 282 141.628 282V286C220.952 286 285.256 221.695 285.256 142.372H281.256ZM141.628 2.74365C218.743 2.74365 281.256 65.2573 281.256 142.372H285.256C285.256 63.0482 220.952 -1.25635 141.628 -1.25635V2.74365ZM2 142.372C2 65.2573 64.5136 2.74365 141.628 2.74365V-1.25635C62.3045 -1.25635 -2 63.0482 -2 142.372H2ZM141.628 282C64.5136 282 2 219.486 2 142.372H-2C-2 221.695 62.3045 286 141.628 286V282ZM136.638 97.3891C137.939 92.1973 145.317 92.1973 146.619 97.3891L150.499 96.4165C148.185 87.1881 135.071 87.1881 132.758 96.4165L136.638 97.3891ZM121.507 101.832C126.594 106.609 134.941 104.158 136.638 97.3891L132.758 96.4165C131.803 100.224 127.107 101.603 124.245 98.9159L121.507 101.832ZM113.11 107.228C111.398 102.157 117.605 98.1678 121.507 101.832L124.245 98.9159C117.31 92.4033 106.278 99.4933 109.321 108.507L113.11 107.228ZM102.784 119.146C109.645 120.414 115.342 113.839 113.11 107.228L109.321 108.507C110.576 112.227 107.371 115.926 103.511 115.212L102.784 119.146ZM98.6375 128.225C94.4555 124.884 97.5204 118.173 102.784 119.146L103.511 115.212C94.1554 113.483 88.7076 125.412 96.1409 131.35L98.6375 128.225ZM96.3933 143.834C102.851 141.191 104.089 132.58 98.6375 128.225L96.1409 131.35C99.2082 133.8 98.5117 138.645 94.8783 140.132L96.3933 143.834ZM97.8137 153.713C92.4895 153.164 91.4395 145.861 96.3933 143.834L94.8783 140.132C86.0732 143.735 87.9395 156.715 97.4032 157.692L97.8137 153.713ZM104.365 168.057C108.369 162.343 104.755 154.429 97.8137 153.713L97.4032 157.692C101.308 158.095 103.341 162.547 101.089 165.762L104.365 168.057ZM110.901 175.601C106.125 178.017 101.293 172.441 104.365 168.057L101.089 165.762C95.6293 173.554 104.217 183.465 112.706 179.17L110.901 175.601ZM124.167 184.126C124.446 177.154 117.127 172.45 110.901 175.601L112.706 179.17C116.209 177.398 120.327 180.044 120.17 183.966L124.167 184.126ZM133.744 186.938C131.032 191.553 123.953 189.474 124.167 184.126L120.17 183.966C119.79 193.473 132.373 197.167 137.192 188.964L133.744 186.938ZM149.513 186.938C145.978 180.922 137.278 180.922 133.744 186.938L137.192 188.964C139.181 185.58 144.075 185.58 146.064 188.964L149.513 186.938ZM159.09 184.126C159.304 189.474 152.224 191.553 149.513 186.938L146.064 188.964C150.884 197.167 163.467 193.473 163.086 183.966L159.09 184.126ZM172.356 175.601C166.129 172.45 158.811 177.154 159.09 184.126L163.086 183.966C162.93 180.044 167.047 177.398 170.55 179.17L172.356 175.601ZM178.892 168.057C181.963 172.441 177.132 178.017 172.356 175.601L170.55 179.17C179.039 183.465 187.627 173.554 182.168 165.762L178.892 168.057ZM185.443 153.713C178.502 154.429 174.888 162.343 178.892 168.057L182.168 165.762C179.915 162.547 181.948 158.095 185.853 157.692L185.443 153.713ZM186.863 143.834C191.817 145.861 190.767 153.164 185.443 153.713L185.853 157.692C195.317 156.715 197.183 143.735 188.378 140.132L186.863 143.834ZM184.619 128.225C179.167 132.58 180.405 141.191 186.863 143.834L188.378 140.132C184.745 138.645 184.048 133.8 187.115 131.35L184.619 128.225ZM180.473 119.146C185.736 118.173 188.801 124.884 184.619 128.225L187.115 131.35C194.549 125.412 189.101 113.483 179.746 115.212L180.473 119.146ZM170.146 107.228C167.914 113.839 173.611 120.414 180.473 119.146L179.746 115.212C175.885 115.926 172.68 112.227 173.936 108.507L170.146 107.228ZM161.749 101.832C165.651 98.1678 171.858 102.157 170.146 107.228L173.936 108.507C176.979 99.4933 165.947 92.4033 159.011 98.916L161.749 101.832ZM146.619 97.3891C148.316 104.158 156.663 106.609 161.749 101.832L159.011 98.9159C156.149 101.603 151.453 100.224 150.499 96.4165L146.619 97.3891Z" fill="#1C1C1C" mask="url(#path-1-inside-1_1135_6245)"/>
</svg>
